After the Wedding 2006 DVDRip Xvid fasamoo LKRG

RIPPER                           : fasamoo
Format/Info                      : Audio Video Interleave
File size                        : 800 MiB
Duration                         : 2h 4mn
Overall bit rate                 : 899 Kbps
Writing application              : VirtualDubMod 1.5.4.1 (build 2178/release)
Writing library                  : VirtualDubMod build 2178/release
Language                         : Danish | Swedish | Hindi | English
Subtitles                        : English (*.srt) | English | Spanish (*.idx,*.sub)
Genre                            : Drama

Video
ID                               : 0
Format                           : MPEG-4 Visual
Format profile                   : Advanced Simple@L5
Format settings, BVOP            : Yes
Format settings, QPel            : No
Format settings, GMC             : No warppoints
Format settings, Matrix          : Custom
Codec ID                         : XVID
Codec ID/Hint                    : XviD
Duration                         : 2h 4mn
Bit rate                         : 774 Kbps
Width                            : 608 pixels
Height                           : 320 pixels
Display aspect ratio             : 1.900
Frame rate                       : 23.976 fps
Color space                      : YUV
Chroma subsampling               : 4:2:0
Bit depth                        : 8 bits
Scan type                        : Progressive
Bits/(Pixel*Frame)               : 0.166
Stream size                      : 689 MiB (86%)
Writing library                  : XviD 1.2.1 (UTC 2008-12-04)

Audio
ID                               : 1
Format                           : MPEG Audio
Format version                   : Version 1
Format profile                   : Layer 3
Mode                             : Joint stereo
Mode extension                   : MS Stereo
Codec ID                         : 55
Codec ID/Hint                    : MP3
Duration                         : 2h 4mn
Bit rate mode                    : Variable
Bit rate                         : 112 Kbps
Nominal bit rate                 : 128 Kbps
Channel(s)                       : 2 channels
Sampling rate                    : 48.0 KHz
Stream size                      : 99.9 MiB (12%)
Alignment                        : Aligned on interleaves
Interleave, duration             : 24 ms (0.58 video frame)
Interleave, preload duration     : 164 ms
Writing library                  : LAME3.98r
Encoding settings                : -m j -V 4 -q 2 -lowpass 17 --abr 128

                                 PLOT

Jacob Pederson lives in shanty surroundings in Bombay, India, and assists in the running of Anand Orphanage and School. He had attempted a number of projects to assist orphans, including child prostitutes - all quite in vain. He has adopted a young male orphan, Pramod, and takes special care of him. With growing pressure on the facilities, which is on the verge bankruptcy, the orphanage receives an offer of funding from wealthy Danish citizen, Jorgen, which may put an end to it's problems. In order to obtain the monies, Jacob must travel to Copenhagen, meet with Jorgen, get financial assistance, and be back to celebrate Pramod's 8th birthday. He sets forth, is received by Christina Refner, an employee and future son-in-law of Jorgen. Jacob is shown all possible courtesy and even housed in a posh apartment. He subsequently meets with Jorgen, shows him video-tapes and submits that a few Kroner could really save several lives which would otherwise succumb to minor illnesses and infections. Jorgen views the videos, but does not display much interest. He invites Jacob to attend his daughter's wedding. Jacob does attend the ceremony, is introduced to Helene, Jorgen's wife; the bride, Anna; and Jorgen's twins - Martin and Morten. After the wedding ceremony, Christian makes a speech. Quite unconventionally, Anna also decides to make a speech - it is this speech that will shatter Jacob's world, slowly make him realize that this invitation to Copenhagen was a ploy to not only ensnare him but also prevent him from returning to India. 


                                 IMBD
                     
                http://www.imdb.com/title/tt0457655/
 
http://leetleech.org/images/48692142003488227657.png 
http://leetleech.org/images/82108004669789113064.png 
http://leetleech.org/images/82451052367726433129.png 
http://leetleech.org/images/30391514798114656850.png

